<svg width="203" height="41" viewBox="0 0 203 41" fill="none" xmlns="http://www.w3.org/2000/svg">
<g clip-path="url(#clip0_5647_33865)">
<path fill-rule="evenodd" clip-rule="evenodd" d="M26.0557 12.1853C24.4112 11.0865 22.4778 10.5 20.5 10.5V0.5C24.4556 0.5 28.3224 1.67298 31.6114 3.87061C34.9004 6.06823 37.4638 9.19181 38.9776 12.8463C40.4913 16.5008 40.8874 20.5222 40.1157 24.4018C39.344 28.2814 37.4392 31.8451 34.6421 34.6421C31.8451 37.4392 28.2814 39.344 24.4018 40.1157C20.5222 40.8874 16.5008 40.4913 12.8463 38.9776C9.1918 37.4638 6.06823 34.9004 3.87061 31.6114C1.67298 28.3224 0.5 24.4556 0.5 20.5H10.5C10.5 22.4778 11.0865 24.4112 12.1853 26.0557C13.2841 27.7002 14.8459 28.9819 16.6732 29.7388C18.5004 30.4957 20.5111 30.6937 22.4509 30.3078C24.3907 29.922 26.1725 28.9696 27.5711 27.5711C28.9696 26.1725 29.922 24.3907 30.3078 22.4509C30.6937 20.5111 30.4957 18.5004 29.7388 16.6732C28.9819 14.8459 27.7002 13.2841 26.0557 12.1853Z" fill="white"/>
<path fill-rule="evenodd" clip-rule="evenodd" d="M10.5 0.500005C10.5 1.81322 10.2413 3.11358 9.73879 4.32684C9.23624 5.54009 8.49965 6.64248 7.57106 7.57107C6.64248 8.49966 5.54009 9.23625 4.32683 9.7388C3.11357 10.2413 1.81321 10.5 0.5 10.5L0.5 20.5C3.12643 20.5 5.72715 19.9827 8.15367 18.9776C10.5802 17.9725 12.785 16.4993 14.6421 14.6421C16.4993 12.785 17.9725 10.5802 18.9776 8.15367C19.9827 5.72715 20.5 3.12643 20.5 0.5L10.5 0.500005Z" fill="white"/>
<path d="M126.119 14.9526H121.267V30.3649H126.119V14.9526Z" fill="white"/>
<path d="M121.807 12.0666C122.314 12.574 122.948 12.8277 123.709 12.8277C124.47 12.8277 125.094 12.574 125.58 12.0666C126.067 11.5381 126.31 10.9038 126.31 10.1638C126.31 9.40277 126.067 8.76849 125.58 8.26111C125.094 7.75369 124.47 7.5 123.709 7.5C122.948 7.5 122.314 7.75369 121.807 8.26111C121.32 8.76849 121.077 9.40277 121.077 10.1638C121.077 10.9038 121.32 11.5381 121.807 12.0666Z" fill="white"/>
<path d="M51.6562 30.3647V7.97559H56.6352V25.9884H66.5613V30.3647H51.6562Z" fill="white"/>
<path fill-rule="evenodd" clip-rule="evenodd" d="M75.5273 30.7135C73.9417 30.7135 72.5041 30.3647 71.2144 29.667C69.9459 28.9482 68.9417 27.9757 68.2017 26.7494C67.4618 25.5232 67.0918 24.149 67.0918 22.6268C67.0918 21.1046 67.4618 19.741 68.2017 18.5359C68.9417 17.3308 69.9459 16.3794 71.2144 15.6818C72.4829 14.9629 73.9206 14.6035 75.5273 14.6035C77.1341 14.6035 78.5717 14.9524 79.8402 15.65C81.1087 16.3477 82.113 17.3097 82.8529 18.5359C83.5929 19.741 83.9629 21.1046 83.9629 22.6268C83.9629 24.149 83.5929 25.5232 82.8529 26.7494C82.113 27.9757 81.1087 28.9482 79.8402 29.667C78.5717 30.3647 77.1341 30.7135 75.5273 30.7135ZM75.5273 26.3055C76.225 26.3055 76.8381 26.1575 77.3667 25.8615C77.8952 25.5444 78.2969 25.111 78.5717 24.5613C78.8677 23.9905 79.0157 23.3456 79.0157 22.6268C79.0157 21.908 78.8677 21.2843 78.5717 20.7558C78.2757 20.2061 77.8635 19.7833 77.3349 19.4873C76.8275 19.1701 76.225 19.0116 75.5273 19.0116C74.8508 19.0116 74.2483 19.1701 73.7197 19.4873C73.1912 19.7833 72.7789 20.2061 72.4829 20.7558C72.1869 21.3055 72.039 21.9397 72.039 22.6585C72.039 23.3562 72.1869 23.9905 72.4829 24.5613C72.7789 25.111 73.1912 25.5444 73.7197 25.8615C74.2483 26.1575 74.8508 26.3055 75.5273 26.3055Z" fill="white"/>
<path fill-rule="evenodd" clip-rule="evenodd" d="M87.8056 36.3902C89.0952 36.9821 90.5857 37.2781 92.2771 37.2781C93.9261 37.2781 95.3955 36.9504 96.6851 36.295C97.9748 35.6396 98.9895 34.7306 99.7295 33.5678C100.469 32.405 100.84 31.0308 100.84 29.4451V14.9525H96.0825V15.988C95.7287 15.6902 95.3269 15.4402 94.8775 15.2379C94.0529 14.8362 93.1121 14.6353 92.0551 14.6353C90.6386 14.6353 89.3806 14.9736 88.2813 15.6501C87.1818 16.3055 86.3151 17.2146 85.6808 18.3774C85.0465 19.5191 84.7295 20.8087 84.7295 22.2464C84.7295 23.6629 85.0465 24.9525 85.6808 26.1153C86.3151 27.2781 87.1818 28.1978 88.2813 28.8743C89.3806 29.5508 90.6386 29.8891 92.0551 29.8891C93.091 29.8891 94.0318 29.6883 94.8775 29.2866C95.2871 29.092 95.6571 28.8627 95.9874 28.5986V29.572C95.9874 30.6502 95.6386 31.4853 94.9409 32.0773C94.2644 32.6693 93.3236 32.9652 92.1185 32.9652C91.146 32.9652 90.3109 32.7961 89.6132 32.4578C88.9367 32.1196 88.3235 31.6227 87.7738 30.9673L84.7929 33.9483C85.5328 35.0054 86.5371 35.8194 87.8056 36.3902ZM94.7189 25.1322C94.2326 25.4282 93.6513 25.5762 92.9747 25.5762C92.2982 25.5762 91.7062 25.4282 91.1988 25.1322C90.7125 24.8362 90.332 24.4345 90.0572 23.9271C89.7823 23.3986 89.6449 22.8383 89.6449 22.2464C89.6449 21.6121 89.7823 21.0413 90.0572 20.5339C90.332 20.0265 90.7231 19.6248 91.2305 19.3288C91.7379 19.0328 92.3193 18.8848 92.9747 18.8848C93.6513 18.8848 94.2326 19.0328 94.7189 19.3288C95.2263 19.6248 95.6068 20.0265 95.8606 20.5339C96.1354 21.0413 96.2728 21.6121 96.2728 22.2464C96.2728 22.8806 96.1354 23.4514 95.8606 23.9588C95.6068 24.4451 95.2263 24.8362 94.7189 25.1322Z" fill="white"/>
<path fill-rule="evenodd" clip-rule="evenodd" d="M111.051 30.7135C109.465 30.7135 108.027 30.3647 106.738 29.667C105.469 28.9482 104.465 27.9757 103.725 26.7494C102.985 25.5232 102.615 24.149 102.615 22.6268C102.615 21.1046 102.985 19.741 103.725 18.5359C104.465 17.3308 105.469 16.3794 106.738 15.6818C108.006 14.9629 109.444 14.6035 111.051 14.6035C112.657 14.6035 114.095 14.9524 115.363 15.65C116.632 16.3477 117.636 17.3097 118.376 18.5359C119.116 19.741 119.486 21.1046 119.486 22.6268C119.486 24.149 119.116 25.5232 118.376 26.7494C117.636 27.9757 116.632 28.9482 115.363 29.667C114.095 30.3647 112.657 30.7135 111.051 30.7135ZM111.051 26.3055C111.748 26.3055 112.361 26.1575 112.89 25.8615C113.418 25.5444 113.82 25.111 114.095 24.5613C114.391 23.9905 114.539 23.3456 114.539 22.6268C114.539 21.908 114.391 21.2843 114.095 20.7558C113.799 20.2061 113.387 19.7833 112.858 19.4873C112.351 19.1701 111.748 19.0116 111.051 19.0116C110.374 19.0116 109.771 19.1701 109.243 19.4873C108.714 19.7833 108.302 20.2061 108.006 20.7558C107.71 21.3055 107.562 21.9397 107.562 22.6585C107.562 23.3562 107.71 23.9905 108.006 24.5613C108.302 25.111 108.714 25.5444 109.243 25.8615C109.771 26.1575 110.374 26.3055 111.051 26.3055Z" fill="white"/>
<path fill-rule="evenodd" clip-rule="evenodd" d="M137.781 30.6819C136.746 30.6819 135.794 30.4811 134.927 30.0794C134.471 29.868 134.059 29.6156 133.691 29.3222V36.8659H128.902V14.9525H133.754V16.0162C134.106 15.7283 134.497 15.4794 134.927 15.2696C135.794 14.8467 136.746 14.6353 137.781 14.6353C139.24 14.6353 140.53 14.9842 141.65 15.6819C142.792 16.3795 143.68 17.3309 144.314 18.536C144.97 19.7411 145.297 21.1153 145.297 22.6586C145.297 24.202 144.97 25.5762 144.314 26.7813C143.68 27.9864 142.792 28.9377 141.65 29.6354C140.53 30.3331 139.24 30.6819 137.781 30.6819ZM136.894 26.3056C137.591 26.3056 138.194 26.147 138.701 25.8299C139.23 25.5128 139.642 25.0793 139.938 24.5297C140.234 23.98 140.382 23.3563 140.382 22.6586C140.382 21.9398 140.234 21.3056 139.938 20.7559C139.642 20.2062 139.23 19.7834 138.701 19.4874C138.194 19.1702 137.602 19.0117 136.925 19.0117C136.249 19.0117 135.646 19.1702 135.118 19.4874C134.61 19.7834 134.209 20.2062 133.913 20.7559C133.617 21.3056 133.469 21.9398 133.469 22.6586C133.469 23.3563 133.606 23.98 133.881 24.5297C134.177 25.0793 134.589 25.5128 135.118 25.8299C135.646 26.147 136.238 26.3056 136.894 26.3056Z" fill="white"/>
<path d="M150.046 30.3963C150.934 30.6289 151.832 30.7451 152.741 30.7451C154.665 30.7451 156.187 30.3012 157.308 29.4132C158.449 28.5253 159.02 27.3308 159.02 25.8297C159.02 24.8572 158.841 24.0749 158.481 23.483C158.122 22.8699 157.657 22.3836 157.086 22.0242C156.515 21.6648 155.912 21.3793 155.278 21.1679C154.644 20.9565 154.041 20.7768 153.471 20.6288C152.9 20.4808 152.435 20.3117 152.075 20.1214C151.716 19.9311 151.536 19.6774 151.536 19.3603C151.536 19.0643 151.674 18.8423 151.948 18.6943C152.223 18.5252 152.635 18.4407 153.185 18.4407C153.756 18.4407 154.337 18.5569 154.929 18.7895C155.542 19.022 156.092 19.4238 156.578 19.9946L159.337 17.2039C158.64 16.3159 157.731 15.6499 156.61 15.206C155.511 14.7409 154.306 14.5083 152.995 14.5083C151.748 14.5083 150.659 14.7197 149.729 15.1425C148.798 15.5654 148.079 16.1468 147.572 16.8867C147.065 17.6055 146.811 18.4618 146.811 19.4555C146.811 20.3857 146.991 21.1574 147.35 21.7705C147.709 22.3624 148.175 22.8276 148.745 23.1658C149.316 23.5041 149.919 23.7684 150.553 23.9586C151.187 24.1489 151.79 24.3286 152.361 24.4978C152.931 24.6458 153.397 24.8255 153.756 25.0369C154.137 25.2272 154.327 25.5126 154.327 25.8931C154.327 26.1891 154.168 26.4216 153.851 26.5908C153.555 26.7599 153.122 26.8445 152.551 26.8445C151.726 26.8445 150.965 26.6965 150.268 26.4005C149.57 26.0834 148.967 25.65 148.46 25.1003L145.701 27.891C146.23 28.4618 146.864 28.9693 147.604 29.4132C148.365 29.836 149.179 30.1637 150.046 30.3963Z" fill="white"/>
<path d="M167.868 30.7137C166.452 30.7137 165.194 30.4283 164.095 29.8575C163.016 29.2655 162.171 28.4621 161.558 27.4473C160.944 26.4114 160.638 25.2275 160.638 23.8955V14.9526H165.49V23.8321C165.49 24.3606 165.574 24.8152 165.744 25.1957C165.934 25.5763 166.209 25.8723 166.568 26.0837C166.928 26.2951 167.361 26.4008 167.868 26.4008C168.587 26.4008 169.158 26.1788 169.581 25.7348C170.004 25.2697 170.215 24.6355 170.215 23.8321V14.9526H175.067V23.8638C175.067 25.2169 174.761 26.4114 174.147 27.4473C173.534 28.4621 172.689 29.2655 171.61 29.8575C170.532 30.4283 169.285 30.7137 167.868 30.7137Z" fill="white"/>
<path d="M182.331 14.9525H177.479V30.3648H182.331V21.3584C182.331 20.8299 182.437 20.3859 182.648 20.0265C182.881 19.6671 183.188 19.3922 183.568 19.202C183.949 18.9905 184.382 18.8848 184.868 18.8848C185.566 18.8848 186.147 19.1068 186.612 19.5508C187.099 19.9736 187.342 20.5762 187.342 21.3584V30.3648H192.194V21.3584C192.194 20.8299 192.3 20.3859 192.511 20.0265C192.744 19.6671 193.05 19.3922 193.431 19.202C193.811 18.9905 194.245 18.8848 194.731 18.8848C195.429 18.8848 196.01 19.1068 196.475 19.5508C196.961 19.9736 197.204 20.5762 197.204 21.3584V30.3648H202.057V20.8193C202.057 19.5297 201.782 18.4303 201.232 17.5212C200.703 16.5909 199.974 15.8827 199.044 15.3965C198.135 14.889 197.088 14.6353 195.904 14.6353C194.699 14.6353 193.61 14.8996 192.638 15.4282C192.006 15.7649 191.454 16.1995 190.981 16.7319C190.54 16.175 190.004 15.7193 189.371 15.3647C188.526 14.8785 187.564 14.6353 186.486 14.6353C185.344 14.6353 184.319 14.8785 183.41 15.3647C183.014 15.567 182.655 15.8093 182.331 16.0916V14.9525Z" fill="white"/>
</g>
<defs>
<clipPath id="clip0_5647_33865">
<rect width="202" height="40" fill="white" transform="translate(0.5 0.5)"/>
</clipPath>
</defs>
</svg>
